<svg width="266" height="68" viewBox="0 0 266 68" fill="none" xmlns="http://www.w3.org/2000/svg">
<g>
<rect width="266" height="68" fill="#000DFF"/>
<rect x="2" y="2" width="64" height="64" fill="white"/>
<line x1="42" y1="24.5" x2="66" y2="24.5" stroke="black" stroke-width="3"/>
<line x1="2" y1="44.5" x2="26" y2="44.5" stroke="black" stroke-width="3"/>
<rect x="2" y="2" width="64" height="64" fill="white"/>
<line x1="42" y1="24.5" x2="66" y2="24.5" stroke="#000DFF" stroke-width="3"/>
<line x1="2" y1="44.5" x2="26" y2="44.5" stroke="#000DFF" stroke-width="3"/>
<rect x="134" y="2" width="64" height="64" fill="white"/>
<line x1="174" y1="24.5" x2="198" y2="24.5" stroke="black" stroke-width="3"/>
<line x1="134" y1="44.5" x2="158" y2="44.5" stroke="black" stroke-width="3"/>
<rect x="134" y="2" width="64" height="64" fill="white"/>
<path d="M180 32.5H198" stroke="#000DFF" stroke-width="3"/>
<line x1="161.5" y1="2" x2="161.5" y2="26" stroke="#000DFF" stroke-width="3"/>
<line x1="161.5" y1="42" x2="161.5" y2="66" stroke="#000DFF" stroke-width="3"/>
<rect width="64" height="64" transform="matrix(0 1 1 0 68 2)" fill="white"/>
<line y1="-1.5" x2="24" y2="-1.5" transform="matrix(0 1 1 0 92 42)" stroke="#000DFF" stroke-width="3"/>
<line y1="-1.5" x2="24" y2="-1.5" transform="matrix(0 1 1 0 112 2)" stroke="#000DFF" stroke-width="3"/>
<rect width="64" height="64" transform="matrix(0 1 1 0 200 2)" fill="white"/>
<line y1="-1.5" x2="24" y2="-1.5" transform="matrix(0 1 1 0 234 42)" stroke="#000DFF" stroke-width="3"/>
<line x1="247.5" y1="2" x2="247.5" y2="34" stroke="#000DFF" stroke-width="3"/>
<line x1="217.5" y1="2" x2="217.5" y2="34" stroke="#000DFF" stroke-width="3"/>
</g>
</svg>
